<svg xmlns="http://www.w3.org/2000/svg" xmlns:xlink="http://www.w3.org/1999/xlink" viewBox="0,0,256,256" width="144px" height="144px" fill-rule="nonzero"><g fill="none" fill-rule="nonzero" stroke="none" stroke-width="none" stroke-linecap="none" stroke-linejoin="none" stroke-miterlimit="10" stroke-dasharray="" stroke-dashoffset="0" font-family="none" font-weight="none" font-size="none" text-anchor="none" style="mix-blend-mode: normal"><g transform="scale(5.33333,5.33333)"><path d="M46,47h-36c-1.105,0 -2,-0.895 -2,-2v-11c0,-1.105 0.895,-2 2,-2h36c1.105,0 2,0.895 2,2v11c0,1.105 -0.895,2 -2,2z" fill-opacity="0.25098" fill="#d97757" stroke="none" stroke-width="1" stroke-linecap="butt" stroke-linejoin="miter"></path><path d="M16.5,15.5v8.5" fill="none" stroke="#d97757" stroke-width="3" stroke-linecap="round" stroke-linejoin="round"></path><path d="M10.5,28v-12.5" fill="none" stroke="#d97757" stroke-width="3" stroke-linecap="round" stroke-linejoin="round"></path><path d="M10.404,35.5h33" fill="none" stroke="#d97757" stroke-width="3" stroke-linecap="round" stroke-linejoin="round"></path><path d="M30.936,42.5h-25.936" fill="none" stroke="#d97757" stroke-width="3" stroke-linecap="round" stroke-linejoin="round"></path><path d="M43,42.5h-6.553" fill="none" stroke="#d97757" stroke-width="3" stroke-linecap="round" stroke-linejoin="round"></path><path d="M6,28.5h36" fill="none" stroke="#d97757" stroke-width="3" stroke-linecap="round" stroke-linejoin="round"></path><path d="M21.5,15.5l-15,-0.005c-0.552,0 -1,-0.448 -1,-1v-4.995c0,-0.552 0.448,-1 1,-1h12.585c0.266,0 0.52,0.106 0.708,0.294l2.415,2.42c0.187,0.187 0.292,0.442 0.292,0.706v2.58c0,0.552 -0.448,1 -1,1z" fill="none" stroke="#d97757" stroke-width="3" stroke-linecap="round" stroke-linejoin="round"></path><path d="M43.5,44.5v-19" fill="none" stroke="#d97757" stroke-width="3" stroke-linecap="round" stroke-linejoin="round"></path><path d="M4.5,44.5v-19" fill="none" stroke="#d97757" stroke-width="3" stroke-linecap="round" stroke-linejoin="round"></path><path d="M10.5,8v-2.5c0,-1.105 0.895,-2 2,-2h2c1.105,0 2,0.895 2,2v2.5" fill="none" stroke="#d97757" stroke-width="3" stroke-linecap="round" stroke-linejoin="round"></path><path d="M39,3.94c-0.564,-0.282 -1.161,-0.508 -1.786,-0.665c-0.619,-0.157 -1.214,0.34 -1.214,0.978v1.837v4.91c0,0.55 -0.45,1 -1,1c-0.55,0 -1,-0.45 -1,-1v-4.91v-1.837c0,-0.638 -0.595,-1.135 -1.214,-0.978c-0.625,0.157 -1.222,0.383 -1.786,0.665c-2.96,1.47 -5,4.53 -5,8.06c0,3.11 1.59,5.86 4,7.48v9.02c0,0.828 0.672,1.5 1.5,1.5h7c0.828,0 1.5,-0.672 1.5,-1.5v-9.02c2.41,-1.62 4,-4.37 4,-7.48c0,-3.53 -2.04,-6.59 -5,-8.06zM40,15.31c-0.604,0.911 -1.455,1.655 -2.46,2.122c-0.339,0.157 -0.54,0.513 -0.54,0.886v2.462v6.22h-4v-6.22v-2.462c0,-0.373 -0.201,-0.73 -0.54,-0.887c-1.005,-0.466 -1.855,-1.211 -2.46,-2.122c-0.64,-0.95 -1,-2.09 -1,-3.31c0,-1.77 0.77,-3.37 2,-4.46v3.29c0,2.089 1.529,3.955 3.609,4.152c2.386,0.227 4.391,-1.642 4.391,-3.981v-3.46c1.23,1.09 2,2.69 2,4.46c0,1.22 -0.36,2.36 -1,3.31z" fill="#d97757" stroke="none" stroke-width="1" stroke-linecap="butt" stroke-linejoin="miter"></path></g></g></svg>