<svg xmlns="http://www.w3.org/2000/svg" xmlns:xlink="http://www.w3.org/1999/xlink" viewBox="-16,-16,288,288" width="150px" height="150px" fill-rule="nonzero">
  <defs>
    <!-- Gradient matching the CSS linear-gradient(135deg, #4299e1 0%, #63b3ed 50%, #4299e1 100%) -->
    <linearGradient id="userMessageGradient" x1="0%" y1="0%" x2="100%" y2="100%">
      <stop offset="0%" style="stop-color:#4299e1;stop-opacity:1" />
      <stop offset="50%" style="stop-color:#63b3ed;stop-opacity:1" />
      <stop offset="100%" style="stop-color:#4299e1;stop-opacity:1" />
    </linearGradient>
    
    <!-- Filter for shadow effects -->
    <filter id="shadowFilter" x="-50%" y="-50%" width="200%" height="200%">
      <!-- Outer shadow (enhanced for more pronounced effect) -->
      <feGaussianBlur in="SourceAlpha" stdDeviation="6"/>
      <feOffset dx="0" dy="8" result="offset"/>
      <feFlood flood-color="#4299e1" flood-opacity="0.4"/>
      <feComposite in2="offset" operator="in"/>
      <feMerge> 
        <feMergeNode/>
        <feMergeNode in="SourceGraphic"/> 
      </feMerge>
    </filter>
    
    <!-- Inner highlight effect -->
    <filter id="innerHighlight" x="-50%" y="-50%" width="200%" height="200%">
      <feGaussianBlur in="SourceGraphic" stdDeviation="1"/>
      <feOffset dx="0" dy="1" result="offset"/>
      <feFlood flood-color="#000" flood-opacity="0.3"/>
      <feComposite in2="offset" operator="in"/>
      <feMerge> 
        <feMergeNode in="SourceGraphic"/>
        <feMergeNode/>
      </feMerge>
    </filter>
  </defs>
  
  <g fill="url(#userMessageGradient)" fill-rule="nonzero" stroke="rgba(0, 0, 0, 0.1)" stroke-width="1" stroke-linecap="butt" stroke-linejoin="miter" stroke-miterlimit="10" stroke-dasharray="" stroke-dashoffset="0" font-family="none" font-weight="none" font-size="none" text-anchor="none" style="mix-blend-mode: normal" filter="url(#shadowFilter)">
    <g transform="scale(5.12,5.12)">
      <path d="M38.5625,-0.09375c-3.80078,0.07422 -8.41406,2.44531 -10.5625,4.59375c-2.73047,2.73047 -2.96875,6.48047 -0.6875,10.375l-3.5625,3.5625l1.28125,1.25c0.67188,-0.5625 1.53906,-0.875 2.46875,-0.875c1.03516,0 2.02734,0.375 2.71875,1.0625l0.6875,0.71875c0.91016,0.91016 1.30078,2.19531 1.0625,3.4375l0.6875,0.71875c0.125,0 0.25,0.02344 0.375,0.03125l2.125,-2.125c1.78906,0.96094 3.51172,1.4375 5.09375,1.4375c1.94922,0 3.70313,-0.73437 5.15625,-2.1875c2.6875,-2.6875 5.61328,-8.95312 4.25,-13.03125c-0.10937,-0.32812 -0.37891,-0.57812 -0.71875,-0.65625c-0.33984,-0.08203 -0.69141,0.03516 -0.9375,0.28125l-5.3125,5.28125c-0.32422,0.32422 -0.93359,0.30469 -1.28125,0l-5.3125,-5.28125c-0.32422,-0.32422 -0.30469,-0.92969 0,-1.28125l5.3125,-5.3125c0.24219,-0.24219 0.35938,-0.60156 0.28125,-0.9375c-0.07812,-0.33594 -0.33203,-0.60547 -0.65625,-0.71875c-0.75,-0.25781 -1.58984,-0.35937 -2.46875,-0.34375zM2.5,0l-2.5,2.5l4.1875,7.3125l2.71875,-0.40625l15.59375,15.59375l-1.1875,1.1875c-0.69141,0.69141 -0.69141,1.93359 0,2.625l0.6875,0.6875c0.49219,0.48828 1.32031,0.65234 1.96875,0.40625l0.625,-0.21875l2.1875,2.1875l-0.0625,0.46875c-0.11328,1.0625 0.30469,2.17969 1.09375,2.96875l13.125,13.15625c1.01563,1.01563 2.34766,1.5625 3.75,1.5625c1.40234,0 2.75391,-0.56641 3.78125,-1.59375c2.00391,-2.09766 2.01953,-5.44922 0,-7.46875l-13.15625,-13.15625c-0.74609,-0.74609 -1.81641,-1.14062 -2.96875,-1.0625l-0.46875,0.03125l-2.1875,-2.1875l0.21875,-0.625c0.26563,-0.68359 0.10938,-1.45312 -0.40625,-1.96875l-0.6875,-0.6875c-0.63281,-0.63281 -1.99219,-0.63281 -2.625,0l-1.1875,1.1875l-15.59375,-15.59375l0.40625,-2.71875zM18.4375,23.75l-6.0625,6.0625c-0.69141,-0.13672 -1.37109,-0.21875 -2.0625,-0.21875c-5.625,0 -10.21875,4.59375 -10.21875,10.21875c0,5.625 4.59375,10.1875 10.21875,10.1875c5.625,0 10.1875,-4.5625 10.1875,-10.1875c0,-0.84766 -0.07031,-1.58203 -0.25,-2.25l4.46875,-4.46875c-0.01172,-0.15234 -0.03516,-0.31641 -0.03125,-0.46875l-0.65625,-0.65625c-1.22266,0.23047 -2.55859,-0.18359 -3.4375,-1.0625l-0.71875,-0.6875c-1.39844,-1.39844 -1.44531,-3.69922 -0.1875,-5.1875zM31.71875,30.28125l12,12l-1.4375,1.4375l-12,-12zM11.5,35l3.5,3.5l-1.1875,4.6875l-4.8125,1.3125l-3.5,-3.5l1.3125,-4.6875z"></path>
    </g>
  </g>
</svg>