<svg xmlns="http://www.w3.org/2000/svg" version="1.1" xmlns:xlink="http://www.w3.org/1999/xlink" width="500px" height="500px"><svg xmlns="http://www.w3.org/2000/svg" xmlns:xlink="http://www.w3.org/1999/xlink" viewBox="0,0,256,256" width="500px" height="500px" fill-rule="nonzero"><g fill="#4299e1" fill-rule="nonzero" stroke="none" stroke-width="1" stroke-linecap="butt" stroke-linejoin="miter" stroke-miterlimit="10" stroke-dasharray="" stroke-dashoffset="0" font-family="none" font-weight="none" font-size="none" text-anchor="none" style="mix-blend-mode: normal"><g transform="scale(5.12,5.12)"><path d="M38.5,-0.09375c-0.29687,0.00781 -0.60547,0.02734 -0.90625,0.0625c-1.19922,0.13672 -2.4375,0.46484 -3.625,0.90625c-2.375,0.88281 -4.5625,2.21875 -5.96875,3.625c-1.51953,1.51953 -2.26562,3.375 -2.25,5.28125c0.01172,1.64844 0.62891,3.3125 1.53125,4.90625l-2.28125,2.3125c-0.29687,0.24219 -0.43359,0.62891 -0.34766,1.00391c0.08594,0.37109 0.37891,0.66406 0.75,0.75c0.375,0.08594 0.76172,-0.05078 1.00391,-0.34766l2.8125,-2.8125c0.33203,-0.33594 0.38281,-0.85547 0.125,-1.25c-1.02344,-1.58203 -1.58203,-3.14453 -1.59375,-4.5625c-0.01172,-1.41797 0.47656,-2.69531 1.65625,-3.875c1.09375,-1.09375 3.15625,-2.36328 5.28125,-3.15625c1.33594,-0.49609 2.60938,-0.68359 3.78125,-0.71875l-3.78125,3.75c-0.01172,0.01953 -0.02344,0.04297 -0.03125,0.0625c-1.02734,1.17188 -1.07422,2.95703 0.03125,4.0625l5.3125,5.3125c0.01172,0.01172 0.01953,0.01953 0.03125,0.03125c1.17188,1.02734 2.95703,1.07422 4.0625,-0.03125l3.78125,-3.78125c-0.03125,1.19141 -0.21875,2.47656 -0.71875,3.8125c-0.78906,2.11328 -2.05859,4.15234 -3.15625,5.25c-1.17969,1.17969 -2.43359,1.61328 -3.84375,1.59375c-1.41016,-0.01953 -3.00781,-0.57422 -4.65625,-1.5625c-0.39453,-0.23437 -0.89453,-0.16797 -1.21875,0.15625l-1.59375,1.59375c-0.39844,0.38672 -0.40234,1.02344 -0.01562,1.42188c0.38672,0.39844 1.02344,0.40234 1.42188,0.01563l1.125,-1.125c1.625,0.87109 3.25781,1.47656 4.90625,1.5c1.89063,0.02734 3.76172,-0.66797 5.28125,-2.1875c1.40234,-1.40234 2.74219,-3.57422 3.625,-5.9375c0.88281,-2.36328 1.34766,-4.92578 0.625,-7.09375c-0.11328,-0.32812 -0.38672,-0.57031 -0.72266,-0.64844c-0.33984,-0.07422 -0.69141,0.02734 -0.93359,0.27344l-5.3125,5.28125c-0.28125,0.28125 -0.85937,0.32031 -1.28125,0c-0.01953,-0.01562 -0.04297,-0.01562 -0.0625,-0.03125l-5.25,-5.25c-0.29687,-0.29687 -0.3125,-0.91797 0.0625,-1.34375l5.25,-5.25c0.24609,-0.24219 0.34766,-0.59375 0.27344,-0.93359c-0.07812,-0.33594 -0.32031,-0.60937 -0.64844,-0.72266c-0.80078,-0.27344 -1.64453,-0.37109 -2.53125,-0.34375zM3.34375,0c-0.21094,0.03125 -0.41016,0.12891 -0.5625,0.28125l-2.5,2.5c-0.32422,0.32422 -0.39062,0.82422 -0.15625,1.21875l4.21875,7.3125c0.21094,0.34375 0.60156,0.52734 1,0.46875l2.1875,-0.34375l13.5625,13.5625l-0.5,0.5c-1.10547,1.10547 -1.10547,2.89453 0,4l0.6875,0.71875c0.79688,0.79688 1.89453,0.79297 2.875,0.46875l1.6875,1.65625c-0.11328,1.34766 0.28125,2.6875 1.25,3.65625l12.1875,12.21875c2.46875,2.46875 6.46875,2.46875 8.9375,0c0,-0.01172 0,-0.01953 0,-0.03125c2.37109,-2.49219 2.40234,-6.50391 0,-8.90625l-12.21875,-12.1875c-1.00781,-1.00781 -2.34766,-1.32031 -3.65625,-1.25l-1.65625,-1.6875c0.32422,-0.98047 0.32813,-2.07812 -0.46875,-2.875l-0.71875,-0.6875c-0.55078,-0.55078 -1.27344,-0.84375 -2,-0.84375c-0.72656,0 -1.44922,0.29297 -2,0.84375l-0.5,0.5l-13.5625,-13.5625l0.34375,-2.1875c0.05859,-0.39844 -0.125,-0.78906 -0.46875,-1l-7.3125,-4.21875c-0.17187,-0.09766 -0.36719,-0.14062 -0.5625,-0.125c-0.03125,0 -0.0625,0 -0.09375,0zM3.6875,2.25l6.03125,3.46875l-0.3125,2.03125c-0.04297,0.30859 0.0625,0.62109 0.28125,0.84375l13.90625,13.90625l-1.09375,1.09375l-13.90625,-13.90625c-0.22266,-0.21875 -0.53516,-0.32422 -0.84375,-0.28125l-2.03125,0.3125l-3.46875,-6.03125zM27.5,21.78125c0.22266,0 0.44531,0.07031 0.59375,0.21875l0.6875,0.71875c0.32813,0.32813 0.32422,0.81641 0.0625,1.125c-0.34766,0.40234 -0.32031,1.00781 0.0625,1.375l2.28125,2.28125c0.23047,0.23047 0.55469,0.33594 0.875,0.28125c0.92578,-0.15234 1.89453,0.08203 2.53125,0.71875l12.1875,12.21875c1.59375,1.59375 1.60938,4.35156 0,6.0625c-1.73047,1.73047 -4.33203,1.73047 -6.0625,0l-12.21875,-12.1875c-0.66406,-0.66406 -0.92578,-1.60547 -0.71875,-2.4375c0.08984,-0.35156 -0.01953,-0.71875 -0.28125,-0.96875l-2.28125,-2.28125c-0.36719,-0.38281 -0.97266,-0.41016 -1.375,-0.0625c-0.30859,0.26172 -0.79687,0.26563 -1.125,-0.0625l-0.71875,-0.6875c-0.29687,-0.29687 -0.29687,-0.89062 0,-1.1875l4.90625,-4.90625c0.14844,-0.14844 0.37109,-0.21875 0.59375,-0.21875zM17.6875,24.78125c-0.22656,0.03125 -0.4375,0.14453 -0.59375,0.3125l-4.75,4.75c-0.67969,-0.13281 -1.34766,-0.25 -2.03125,-0.25c-5.63672,0 -10.21875,4.58203 -10.21875,10.21875c0,5.63672 4.58203,10.1875 10.21875,10.1875c5.63672,0 10.1875,-4.55078 10.1875,-10.1875c0,-0.73047 -0.16406,-1.45312 -0.34375,-2.15625l3.4375,-3.4375c0.39844,-0.38672 0.40234,-1.02344 0.01563,-1.42187c-0.38672,-0.39844 -1.02344,-0.40234 -1.42187,-0.01562l-3.78125,3.8125c-0.28516,0.27344 -0.38281,0.69141 -0.25,1.0625c0.25,0.66406 0.34375,1.33203 0.34375,2.15625c0,4.5625 -3.625,8.1875 -8.1875,8.1875c-4.5625,0 -8.21875,-3.625 -8.21875,-8.1875c0,-4.5625 3.65625,-8.21875 8.21875,-8.21875c0.71484,0 1.43359,0.10156 2.15625,0.28125c0.33984,0.07422 0.69531,-0.03125 0.9375,-0.28125l5.09375,-5.09375c0.29688,-0.28516 0.38672,-0.72656 0.22656,-1.10547c-0.15625,-0.37891 -0.53516,-0.62109 -0.94531,-0.61328c-0.03125,0 -0.0625,0 -0.09375,0zM31.71875,30.28125l-1.4375,1.4375l12,12l1.4375,-1.4375zM11.375,34c-0.05469,0.00781 -0.10547,0.01563 -0.15625,0.03125l-4.6875,1.3125c-0.33203,0.09375 -0.59375,0.35547 -0.6875,0.6875l-1.3125,4.6875c-0.10937,0.35547 -0.01172,0.73828 0.25,1l3.5,3.5c0.25391,0.25 0.625,0.34766 0.96875,0.25l4.8125,-1.3125c0.35156,-0.08984 0.62891,-0.36719 0.71875,-0.71875l1.1875,-4.6875c0.09766,-0.34375 0,-0.71484 -0.25,-0.96875l-3.5,-3.5c-0.22266,-0.21875 -0.53516,-0.32422 -0.84375,-0.28125zM11.1875,36.125l2.6875,2.6875l-0.90625,3.59375l-3.65625,0.96875l-2.6875,-2.6875l0.96875,-3.59375z"></path></g></g></svg><style>@media (prefers-color-scheme: light) { :root { filter: none; } }
@media (prefers-color-scheme: dark) { :root { filter: none; } }
</style></svg>